<?xml version="1.0" encoding="utf-8"?>
<!-- Generator: Adobe Illustrator 27.1.1, SVG Export Plug-In . SVG Version: 6.00 Build 0)  -->
<svg version="1.1" id="Layer_1" xmlns="http://www.w3.org/2000/svg" xmlns:xlink="http://www.w3.org/1999/xlink" x="0px" y="0px"
	 viewBox="0 0 424.06 195.52" style="enable-background:new 0 0 424.06 195.52;" xml:space="preserve">
<style type="text/css">
	.st0{fill:#202A38;}
</style>
<g>
	<g>
		<g>
			<path class="st0" d="M241.55,38.3h2.65l8.07,20.03l8.2-20.03h2.49l-9.28,22.32h-2.97L241.55,38.3z"/>
			<path class="st0" d="M269.27,38.3h2.97l9.18,22.32h-2.68l-2.81-7.02h-10.52l-2.84,7.02h-2.55L269.27,38.3z M275.07,51.51
				l-4.4-10.94l-4.4,10.94H275.07z"/>
			<path class="st0" d="M284.48,38.3h2.46v20.12h13.3v2.2h-15.75V38.3z"/>
			<path class="st0" d="M302.12,56.8l1.63-1.69c2.3,2.46,4.91,3.7,7.81,3.7c3.51,0,6-1.82,6-4.4c0-2.3-1.47-3.41-5.13-4.02
				l-3.22-0.51c-4.31-0.7-6.28-2.49-6.28-5.65c0-3.7,3.16-6.22,7.84-6.22c3.12,0,6.28,1.05,8.8,2.97l-1.4,1.91
				c-2.46-1.85-4.94-2.77-7.49-2.77c-3.19,0-5.36,1.59-5.36,3.92c0,2.07,1.28,3.09,4.53,3.6l3.19,0.51c4.88,0.8,6.98,2.65,6.98,6.12
				c0,3.92-3.51,6.67-8.55,6.67C307.93,60.95,304.58,59.48,302.12,56.8z"/>
			<path class="st0" d="M329.52,40.51h-8.07v-2.2h18.59v2.2h-8.07v20.12h-2.46V40.51z"/>
			<path class="st0" d="M350.35,51.54l-8.87-13.23h2.87l7.3,11.07l7.27-11.07h2.77l-8.9,13.33v8.99h-2.46V51.54z"/>
			<path class="st0" d="M364.7,38.3h9.06c4.31,0,7.05,2.23,7.05,5.74c0,2.3-1.28,4.05-3.41,4.94c2.68,0.83,4.34,2.77,4.34,5.36
				c0,3.83-3,6.28-7.59,6.28h-9.44V38.3z M373.63,48.03c2.9,0,4.75-1.47,4.75-3.8c0-2.33-1.85-3.79-4.75-3.79h-6.47v7.59H373.63z
				 M373.95,58.49c3.22,0,5.29-1.66,5.29-4.21s-2.07-4.21-5.29-4.21h-6.79v8.42H373.95z"/>
			<path class="st0" d="M386.13,38.3h15.98v2.17h-13.52v7.81h8.83v2.14h-8.83v8.04h13.65v2.17h-16.1V38.3z M392.96,33.52
				c0-0.86,0.7-1.56,1.56-1.56s1.56,0.7,1.56,1.56c0,0.86-0.7,1.56-1.56,1.56S392.96,34.38,392.96,33.52z"/>
			<path class="st0" d="M404.15,56.8l1.63-1.69c2.3,2.46,4.91,3.7,7.81,3.7c3.51,0,6-1.82,6-4.4c0-2.3-1.47-3.41-5.13-4.02
				l-3.22-0.51c-4.31-0.7-6.28-2.49-6.28-5.65c0-3.7,3.16-6.22,7.84-6.22c3.12,0,6.28,1.05,8.8,2.97l-1.4,1.91
				c-2.46-1.85-4.94-2.77-7.49-2.77c-3.19,0-5.36,1.59-5.36,3.92c0,2.07,1.28,3.09,4.53,3.6l3.19,0.51c4.88,0.8,6.98,2.65,6.98,6.12
				c0,3.92-3.51,6.67-8.55,6.67C409.96,60.95,406.61,59.48,404.15,56.8z"/>
			<path class="st0" d="M243.88,77.88h7.37c6.79,0,11.74,4.69,11.74,11.16c0,6.47-4.91,11.16-11.74,11.16h-7.37V77.88z
				 M251.38,97.97c5.17,0,9.12-3.86,9.12-8.93c0-5.07-3.95-8.93-9.12-8.93h-5.04v17.86H251.38z"/>
			<path class="st0" d="M266.88,90.77V77.88h2.46v12.88c0,4.59,2.65,7.53,6.76,7.53s6.76-2.93,6.76-7.53V77.88h2.46v12.88
				c0,6-3.57,9.79-9.22,9.79C270.42,100.56,266.88,96.79,266.88,90.77z"/>
			<path class="st0" d="M289.21,89.05c0-6.44,5.07-11.51,11.51-11.51c6.41,0,11.48,5.07,11.48,11.51c0,6.44-5.07,11.51-11.48,11.51
				C294.28,100.56,289.21,95.49,289.21,89.05z M309.71,89.05c0-5.23-3.92-9.25-8.99-9.25c-5.1,0-9.03,4.02-9.03,9.25
				c0,5.2,3.92,9.25,9.03,9.25C305.79,98.29,309.71,94.24,309.71,89.05z"/>
			<path class="st0" d="M316.54,77.88h3.44l7.62,15.85l7.59-15.85h3.44v22.32h-2.33V80.69l-8.74,17.92l-8.74-17.89v19.49h-2.3V77.88
				z"/>
			<path class="st0" d="M344.03,77.88h15.98v2.17h-13.52v7.81h8.83V90h-8.83v8.04h13.65v2.17h-16.1V77.88z"/>
			<path class="st0" d="M364.16,77.88h2.46L380.04,96V77.88h2.33v22.32h-2.17l-13.71-18.59v18.59h-2.33V77.88z"/>
			<path class="st0" d="M394.11,104.51c0-1.37,0.8-2.55,2.71-3.95c-5.77,0.06-9.5-3.6-9.5-9.79V77.88h2.46v12.88
				c0,4.59,2.65,7.53,6.76,7.53s6.76-2.93,6.76-7.53V77.88h2.46v12.88c0,5.07-2.55,8.58-6.76,9.54c-2.23,1.44-3.25,2.62-3.25,3.83
				c0,1.05,0.67,1.66,1.85,1.66c0.54,0,1.08-0.13,1.53-0.45l0.48,1.24c-0.7,0.45-1.47,0.67-2.36,0.67
				C395.35,107.25,394.11,106.17,394.11,104.51z"/>
			<path class="st0" d="M250.8,117.46h2.97l9.18,22.32h-2.68l-2.81-7.02h-10.52l-2.84,7.02h-2.55L250.8,117.46z M256.61,130.66
				l-4.4-10.94l-4.4,10.94H256.61z"/>
			<path class="st0" d="M263.85,128.62c0-6.41,5.07-11.51,11.51-11.51c3.44,0,6.63,1.34,8.8,3.67l-1.66,1.69
				c-1.72-1.95-4.4-3.09-7.14-3.09c-5.1,0-9.03,4.02-9.03,9.25c0,5.23,3.92,9.25,9.03,9.25c4.53,0,8-3.22,8.39-7.59h-8v-2.17h10.49
				v0.99c0,6.22-4.72,11.03-10.84,11.03C268.95,140.14,263.85,135.03,263.85,128.62z"/>
			<path class="st0" d="M290.51,117.46h15.98v2.17h-13.52v7.81h8.83v2.14h-8.83v8.04h13.65v2.17h-16.1V117.46z"/>
			<path class="st0" d="M310.64,117.46h2.46l13.43,18.11v-18.11h2.33v22.32h-2.17l-13.71-18.59v18.59h-2.33V117.46z"/>
			<path class="st0" d="M340.4,119.66h-8.07v-2.2h18.59v2.2h-8.07v20.12h-2.46V119.66z"/>
			<path class="st0" d="M353.95,130.35v-12.88h2.46v12.88c0,4.59,2.65,7.53,6.76,7.53s6.76-2.93,6.76-7.53v-12.88h2.46v12.88
				c0,6-3.57,9.79-9.22,9.79C357.49,140.14,353.95,136.37,353.95,130.35z M358.64,111.94h9.06v1.69h-9.06V111.94z"/>
			<path class="st0" d="M377.33,117.46h9.57c4.37,0,7.27,2.55,7.27,6.41c0,2.93-1.85,5.17-4.75,6l5.01,9.92h-2.71l-4.78-9.6h-7.14
				v9.6h-2.46V117.46z M386.74,128.11c3,0,4.98-1.66,4.98-4.24c0-2.55-1.98-4.21-4.98-4.21h-6.95v8.45H386.74z"/>
			<path class="st0" d="M405.62,117.46h2.97l9.18,22.32h-2.68l-2.81-7.02h-10.52l-2.84,7.02h-2.55L405.62,117.46z M411.42,130.66
				l-4.4-10.94l-4.4,10.94H411.42z"/>
		</g>
	</g>
	<g>
		<path class="st0" d="M37.04,23.43h2.12V4.87h82.45v33.38H84.19v14.82h37.41v5.79H84.19v14.82h37.41v5.79H84.19v14.82h37.41v96.93
			l-1.99-0.06v0c-44.39-1.12-80.18-37.46-80.45-82.06h-2.12c0.27,46.51,38,84.13,84.55,84.2v0c0.02,0,0.04,0,0.06,0
			c0.02,0,0.04,0,0.06,0v0c46.72-0.07,84.57-37.96,84.57-84.69V2.75H37.04V23.43z"/>
		<rect x="63.6" y="38.25" class="st0" width="14.82" height="14.82"/>
		<rect x="22.42" y="38.25" class="st0" width="14.82" height="14.82"/>
		<rect x="22.42" y="79.47" class="st0" width="14.82" height="14.82"/>
		<rect x="1.83" y="38.25" class="st0" width="14.82" height="14.82"/>
		<rect x="63.6" y="58.86" class="st0" width="14.82" height="14.82"/>
		<rect x="43.01" y="58.86" class="st0" width="14.82" height="14.82"/>
		<rect x="63.6" y="79.47" class="st0" width="14.82" height="14.82"/>
	</g>
</g>
</svg>
